<svg xmlns:dc="http://purl.org/dc/elements/1.1/" xmlns:cc="http://creativecommons.org/ns#" xmlns:rdf="http://www.w3.org/1999/02/22-rdf-syntax-ns#" xmlns:svg="http://www.w3.org/2000/svg" xmlns="http://www.w3.org/2000/svg" xmlns:xlink="http://www.w3.org/1999/xlink" id="svg344" viewBox="0 0 1024 768" height="768px" width="1024px" version="1.1">
  <metadata id="metadata350">
    <rdf:rdf>
      <cc:work rdf:about="">
        <dc:format>image/svg+xml</dc:format>
        <dc:type rdf:resource="http://purl.org/dc/dcmitype/StillImage"></dc:type>
      </cc:work>
    </rdf:rdf>
  </metadata>
  <defs id="defs348"></defs>
  <linearGradient spreadMethod="pad" y2="30%" x2="-10%" y1="120%" x1="30%" id="3d_gradient2-logo-f6eccee6-2615-4a1b-a123-d09d30875bc4">
    <stop id="stop325" stop-opacity="1" stop-color="#ffffff" offset="0%"></stop>
    <stop id="stop327" stop-opacity="1" stop-color="#000000" offset="100%"></stop>
  </linearGradient>
  <linearGradient gradientTransform="rotate(-30)" spreadMethod="pad" y2="30%" x2="-10%" y1="120%" x1="30%" id="3d_gradient3-logo-f6eccee6-2615-4a1b-a123-d09d30875bc4">
    <stop id="stop330" stop-opacity="1" stop-color="#ffffff" offset="0%"></stop>
    <stop id="stop332" stop-opacity="1" stop-color="#cccccc" offset="50%"></stop>
    <stop id="stop334" stop-opacity="1" stop-color="#000000" offset="100%"></stop>
  </linearGradient>
  <g id="logo-group">
    <image xlink:href="" id="container" x="272" y="144" width="120" height="120" style="display: none;" transform="translate(0 0)"></image>
    <g id="logo-center" transform="translate(5.684341886080802e-14 0)">
      <image xlink:href="" id="icon_container" style="display: none;" x="0" y="0"></image>
      <g id="slogan" style="font-style:oblique;font-weight:normal;font-size:32px;line-height:1;font-family:'Droid Serif';font-variant-ligatures:none;text-align:center;text-anchor:middle" transform="translate(0 0)"></g>
      <g id="title" style="font-style:normal;font-weight:normal;font-size:72px;line-height:1;font-family:'Brandmark Script 7';font-variant-ligatures:normal;text-align:center;text-anchor:middle" transform="translate(0 0)">
        <path id="path353" style="font-style:normal;font-weight:normal;font-size:72px;line-height:1;font-family:'Brandmark Script 7';font-variant-ligatures:normal;text-align:center;text-anchor:middle" d="m 447.88456,-15.12 -2.808,-0.864 c -0.936,-0.288 -1.224,0.072 -1.8,1.152 -3.168,5.544 -7.056,8.424 -11.448,8.424 -5.4,0 -7.272,-4.176 -6.264,-8.568 1.008,-4.392 4.608,-7.416 8.712,-7.416 1.368,0 2.592,0.36 3.528,0.792 0.864,0.36 1.224,0.36 1.872,-0.36 l 2.16,-2.52 c 0.504,-0.648 0.648,-1.08 -0.288,-2.016 -1.656,-1.512 -5.112,-3.168 -8.928,-3.168 -7.056,0 -14.904,5.544 -16.416,14.4 -1.44,8.784 4.032,16.128 13.32,16.128 8.28,0 15.84,-5.832 19.152,-14.4 0.288,-0.792 0.072,-1.296 -0.792,-1.584 z" stroke-width="0" stroke-linejoin="miter" stroke-miterlimit="2" fill="#110531" stroke="#110531" transform="translate(0 312.85215999999997) translate(332.08904108 42.48896) scale(1.86) translate(-415.97593 29.664)"></path>
        <path id="path355" style="font-style:normal;font-weight:normal;font-size:72px;line-height:1;font-family:'Brandmark Script 7';font-variant-ligatures:normal;text-align:center;text-anchor:middle" d="m 441.34269,-1.44 c -0.072,0.792 0.432,1.44 1.224,1.44 h 5.76 c 1.008,0 1.512,-0.576 1.656,-1.44 l 0.792,-5.04 c 1.296,-6.696 5.904,-15.048 9.504,-15.048 1.584,0 1.944,1.584 1.512,4.32 l -1.152,7.128 c -0.936,6.048 2.232,10.944 8.424,10.944 8.064,0 12.672,-8.352 14.256,-14.4 0.216,-0.792 0.072,-1.296 -0.792,-1.584 l -2.808,-0.864 c -0.864,-0.216 -1.296,0 -1.656,0.864 -1.08,2.664 -3.456,8.712 -6.768,8.712 -2.016,0 -2.304,-2.304 -1.656,-6.12 l 0.792,-5.328 c 1.08,-6.552 -0.864,-11.808 -6.696,-11.808 -4.536,0 -7.992,3.096 -10.296,6.12 l 3.6,-22.68 c 0.144,-0.792 -0.36,-1.44 -1.224,-1.44 h -5.76 c -0.864,0 -1.512,0.576 -1.656,1.44 z" stroke-width="0" stroke-linejoin="miter" stroke-miterlimit="2" fill="#260f4f" stroke="#260f4f" transform="translate(0 312.85215999999997) translate(379.25852947999994 9.008959999999988) scale(1.86) translate(-441.33587 47.664)"></path>
        <path id="path357" style="font-style:normal;font-weight:normal;font-size:72px;line-height:1;font-family:'Brandmark Script 7';font-variant-ligatures:normal;text-align:center;text-anchor:middle" d="m 505.67244,-14.544 c -2.736,5.616 -7.848,7.992 -12.24,7.992 -3.096,0 -5.04,-1.224 -6.048,-3.168 6.264,0.144 14.904,-2.808 16.56,-9.72 1.44,-5.832 -3.024,-10.224 -9.504,-10.224 -7.2,0 -15.12,5.4 -16.848,13.968 -1.944,9.36 4.824,16.56 14.256,16.56 9,0 16.488,-6.48 19.368,-14.4 0.288,-0.792 0.072,-1.296 -0.792,-1.584 l -2.808,-0.864 c -0.864,-0.288 -1.224,0 -1.944,1.44 z m -18.936,0.504 c 0,-0.144 0.072,-0.36 0.072,-0.504 0.792,-4.392 4.68,-7.704 7.416,-7.704 1.44,0 2.232,0.864 2.232,2.016 0,2.952 -4.824,5.976 -9.72,6.192 z" stroke-width="0" stroke-linejoin="miter" stroke-miterlimit="2" fill="#3b186d" stroke="#3b186d" transform="translate(0 312.85215999999997) translate(446.0740074799999 42.48896) scale(1.86) translate(-477.25817 29.664)"></path>
        <path id="path359" style="font-style:normal;font-weight:normal;font-size:72px;line-height:1;font-family:'Brandmark Script 7';font-variant-ligatures:normal;text-align:center;text-anchor:middle" d="m 533.22481,-15.12 c -1.08,2.952 -3.96,8.712 -7.416,8.712 -1.656,0 -2.808,-1.368 -2.016,-4.824 0.936,-4.248 2.448,-9.432 2.592,-10.008 0.504,-2.376 0.36,-3.672 -2.016,-4.752 -3.6,-1.584 -7.992,-2.952 -10.08,-4.464 0.144,-2.808 -1.296,-5.184 -4.104,-4.896 -3.24,0.288 -4.608,3.744 -2.88,7.992 0.432,2.52 0.144,8.352 -1.512,12.744 -0.288,0.648 -0.144,1.152 0.504,1.368 l 3.384,1.296 c 0.648,0.216 1.08,0.144 1.296,-0.576 1.08,-3.456 1.872,-7.416 2.304,-11.448 l 2.808,1.296 c 1.152,0.504 1.512,1.08 1.152,2.52 -0.936,4.104 -2.088,6.984 -2.664,10.368 -0.864,5.616 3.384,10.656 9.432,10.656 7.848,0 12.888,-8.352 14.472,-14.4 0.216,-0.792 0.072,-1.296 -0.792,-1.584 l -2.808,-0.864 c -0.864,-0.288 -1.368,0 -1.656,0.864 z" stroke-width="0" stroke-linejoin="miter" stroke-miterlimit="2" fill="#50228b" stroke="#50228b" transform="translate(0 312.85215999999997) translate(498.88535947999986 31.865168240000003) scale(1.86) translate(-505.65137 35.375716)"></path>
        <path id="path361" style="font-style:normal;font-weight:normal;font-size:72px;line-height:1;font-family:'Brandmark Script 7';font-variant-ligatures:normal;text-align:center;text-anchor:middle" d="m 560.50606,-15.12 c -1.08,2.952 -3.96,8.712 -7.416,8.712 -1.656,0 -2.808,-1.368 -2.016,-4.824 0.936,-4.248 2.448,-9.432 2.592,-10.008 0.504,-2.376 0.36,-3.672 -2.016,-4.752 -3.6,-1.584 -7.992,-2.952 -10.08,-4.464 0.144,-2.808 -1.296,-5.184 -4.104,-4.896 -3.24,0.288 -4.608,3.744 -2.88,7.992 0.432,2.52 0.144,8.352 -1.512,12.744 -0.288,0.648 -0.144,1.152 0.504,1.368 l 3.384,1.296 c 0.648,0.216 1.08,0.144 1.296,-0.576 1.08,-3.456 1.872,-7.416 2.304,-11.448 l 2.808,1.296 c 1.152,0.504 1.512,1.08 1.152,2.52 -0.936,4.104 -2.088,6.984 -2.664,10.368 -0.864,5.616 3.384,10.656 9.432,10.656 7.848,0 12.888,-8.352 14.472,-14.4 0.216,-0.792 0.072,-1.296 -0.792,-1.584 l -2.808,-0.864 c -0.864,-0.288 -1.368,0 -1.656,0.864 z" stroke-width="0" stroke-linejoin="miter" stroke-miterlimit="2" fill="#652ca9" stroke="#652ca9" transform="translate(0 312.85215999999997) translate(549.62848448 31.865168240000003) scale(1.86) translate(-532.93262 35.375716)"></path>
        <path id="path363" style="font-style:normal;font-weight:normal;font-size:72px;line-height:1;font-family:'Brandmark Script 7';font-variant-ligatures:normal;text-align:center;text-anchor:middle" d="m 594.41131,-15.984 c -0.864,-0.288 -1.368,0 -1.656,0.864 -1.728,4.464 -4.248,8.568 -8.352,11.16 0.792,-5.4 0.504,-3.096 3.672,-23.4 0.144,-0.792 -0.36,-1.44 -1.224,-1.44 h -5.688 c -0.864,0 -1.512,0.576 -1.656,1.44 l -1.656,10.656 c -0.72,4.536 -3.456,10.296 -7.128,10.296 -2.304,0 -2.808,-2.304 -2.16,-6.12 l 2.304,-14.832 c 0.144,-0.792 -0.36,-1.44 -1.224,-1.44 h -5.76 c -0.864,0 -1.512,0.576 -1.656,1.44 l -2.664,17.28 c -1.008,6.048 1.584,10.944 8.424,10.944 2.88,0 5.256,-0.864 7.344,-2.304 -0.144,0.72 -0.288,1.44 -0.432,2.088 -10.08,3.6 -17.28,5.112 -17.28,11.16 0,4.176 3.528,7.344 8.928,7.344 6.12,0 12.888,-4.032 16.344,-15.696 6.912,-3.096 12.888,-8.856 14.976,-16.344 0.36,-1.44 0.216,-1.944 -0.648,-2.232 z m -21.528,22.968 c -0.936,2.016 -1.944,3.024 -2.664,3.528 -1.656,1.224 -4.032,1.512 -4.464,0.576 -0.504,-1.008 1.944,-2.304 7.128,-4.104 z" stroke-width="0" stroke-linejoin="miter" stroke-miterlimit="2" fill="#7a35c7" stroke="#7a35c7" transform="translate(0 312.85215999999997) translate(595.54572788 44.096) scale(1.86) translate(-557.61931 28.8)"></path>
        <path id="path365" style="font-style:normal;font-weight:normal;font-size:72px;line-height:1;font-family:'Brandmark Script 7';font-variant-ligatures:normal;text-align:center;text-anchor:middle" d="m 594.64644,-23.4 -2.088,13.32 c -1.008,6.408 2.736,10.944 8.064,10.944 2.952,0 5.4,-1.44 6.624,-2.52 0.936,-0.792 1.008,-1.224 0.576,-2.016 l -1.656,-2.736 c -0.36,-0.576 -0.648,-0.576 -1.368,-0.288 -0.36,0.144 -0.792,0.288 -1.296,0.288 -2.808,0 -2.304,-3.744 -1.944,-6.12 l 1.728,-10.872 h 3.888 c 1.008,0 1.584,-0.576 1.656,-1.44 l 0.576,-3.384 c 0.144,-0.792 -0.432,-1.44 -1.224,-1.44 h -3.888 l 0.936,-6.12 c 0.144,-0.792 -0.432,-1.44 -1.224,-1.44 h -5.76 c -0.864,0 -1.512,0.576 -1.656,1.44 l -0.936,6.12 h -2.52 c -0.864,0 -1.584,0.576 -1.656,1.44 l -0.576,3.384 c -0.072,0.792 0.432,1.44 1.224,1.44 z" stroke-width="0" stroke-linejoin="miter" stroke-miterlimit="2" fill="#8f3fe5" stroke="#8f3fe5" transform="translate(0 312.85215999999997) translate(657.4396644799999 28.427360000000007) scale(1.86) translate(-590.89562 37.224)"></path>
      </g>
      <image xlink:href="" id="icon" style="display: none;" x="0" y="0"></image>
    </g>
  </g>
</svg>